<svg xmlns="http://www.w3.org/2000/svg" width="84px" height="54px" viewBox="-10 -10 64 34">
<rect x="10" y="2" width="2" height="2" fill="#fff"/>
<rect x="12" y="2" width="2" height="2" fill="#fff"/>
<rect x="24" y="2" width="2" height="2" fill="#fff"/>
<rect x="26" y="2" width="2" height="2" fill="#fff"/>
<rect x="28" y="2" width="2" height="2" fill="#fff"/>
<rect x="46" y="2" width="2" height="2" fill="#fff"/>
<rect x="48" y="2" width="2" height="2" fill="#fff"/>
<rect x="8" y="4" width="2" height="2" fill="#fff"/>
<rect x="10" y="4" width="2" height="2" fill="#fff"/>
<rect x="12" y="4" width="2" height="2" fill="#fff"/>
<rect x="22" y="4" width="2" height="2" fill="#fff"/>
<rect x="24" y="4" width="2" height="2" fill="#fff"/>
<rect x="28" y="4" width="2" height="2" fill="#fff"/>
<rect x="30" y="4" width="2" height="2" fill="#fff"/>
<rect x="44" y="4" width="2" height="2" fill="#fff"/>
<rect x="46" y="4" width="2" height="2" fill="#fff"/>
<rect x="48" y="4" width="2" height="2" fill="#fff"/>
<rect x="6" y="6" width="2" height="2" fill="#fff"/>
<rect x="8" y="6" width="2" height="2" fill="#fff"/>
<rect x="10" y="6" width="2" height="2" fill="#fff"/>
<rect x="12" y="6" width="2" height="2" fill="#fff"/>
<rect x="20" y="6" width="2" height="2" fill="#fff"/>
<rect x="22" y="6" width="2" height="2" fill="#fff"/>
<rect x="30" y="6" width="2" height="2" fill="#fff"/>
<rect x="32" y="6" width="2" height="2" fill="#fff"/>
<rect x="42" y="6" width="2" height="2" fill="#fff"/>
<rect x="44" y="6" width="2" height="2" fill="#fff"/>
<rect x="46" y="6" width="2" height="2" fill="#fff"/>
<rect x="48" y="6" width="2" height="2" fill="#fff"/>
<rect x="4" y="8" width="2" height="2" fill="#fff"/>
<rect x="6" y="8" width="2" height="2" fill="#fff"/>
<rect x="10" y="8" width="2" height="2" fill="#fff"/>
<rect x="12" y="8" width="2" height="2" fill="#fff"/>
<rect x="20" y="8" width="2" height="2" fill="#fff"/>
<rect x="22" y="8" width="2" height="2" fill="#fff"/>
<rect x="30" y="8" width="2" height="2" fill="#fff"/>
<rect x="32" y="8" width="2" height="2" fill="#fff"/>
<rect x="40" y="8" width="2" height="2" fill="#fff"/>
<rect x="42" y="8" width="2" height="2" fill="#fff"/>
<rect x="46" y="8" width="2" height="2" fill="#fff"/>
<rect x="48" y="8" width="2" height="2" fill="#fff"/>
<rect x="2" y="10" width="2" height="2" fill="#fff"/>
<rect x="4" y="10" width="2" height="2" fill="#fff"/>
<rect x="10" y="10" width="2" height="2" fill="#fff"/>
<rect x="12" y="10" width="2" height="2" fill="#fff"/>
<rect x="20" y="10" width="2" height="2" fill="#fff"/>
<rect x="22" y="10" width="2" height="2" fill="#fff"/>
<rect x="30" y="10" width="2" height="2" fill="#fff"/>
<rect x="32" y="10" width="2" height="2" fill="#fff"/>
<rect x="38" y="10" width="2" height="2" fill="#fff"/>
<rect x="40" y="10" width="2" height="2" fill="#fff"/>
<rect x="46" y="10" width="2" height="2" fill="#fff"/>
<rect x="48" y="10" width="2" height="2" fill="#fff"/>
<rect x="2" y="12" width="2" height="2" fill="#fff"/>
<rect x="4" y="12" width="2" height="2" fill="#fff"/>
<rect x="10" y="12" width="2" height="2" fill="#fff"/>
<rect x="12" y="12" width="2" height="2" fill="#fff"/>
<rect x="20" y="12" width="2" height="2" fill="#fff"/>
<rect x="22" y="12" width="2" height="2" fill="#fff"/>
<rect x="30" y="12" width="2" height="2" fill="#fff"/>
<rect x="32" y="12" width="2" height="2" fill="#fff"/>
<rect x="38" y="12" width="2" height="2" fill="#fff"/>
<rect x="40" y="12" width="2" height="2" fill="#fff"/>
<rect x="46" y="12" width="2" height="2" fill="#fff"/>
<rect x="48" y="12" width="2" height="2" fill="#fff"/>
<rect x="2" y="14" width="2" height="2" fill="#fff"/>
<rect x="4" y="14" width="2" height="2" fill="#fff"/>
<rect x="6" y="14" width="2" height="2" fill="#fff"/>
<rect x="8" y="14" width="2" height="2" fill="#fff"/>
<rect x="10" y="14" width="2" height="2" fill="#fff"/>
<rect x="12" y="14" width="2" height="2" fill="#fff"/>
<rect x="14" y="14" width="2" height="2" fill="#fff"/>
<rect x="20" y="14" width="2" height="2" fill="#fff"/>
<rect x="22" y="14" width="2" height="2" fill="#fff"/>
<rect x="30" y="14" width="2" height="2" fill="#fff"/>
<rect x="32" y="14" width="2" height="2" fill="#fff"/>
<rect x="38" y="14" width="2" height="2" fill="#fff"/>
<rect x="40" y="14" width="2" height="2" fill="#fff"/>
<rect x="42" y="14" width="2" height="2" fill="#fff"/>
<rect x="44" y="14" width="2" height="2" fill="#fff"/>
<rect x="46" y="14" width="2" height="2" fill="#fff"/>
<rect x="48" y="14" width="2" height="2" fill="#fff"/>
<rect x="50" y="14" width="2" height="2" fill="#fff"/>
<rect x="10" y="16" width="2" height="2" fill="#fff"/>
<rect x="12" y="16" width="2" height="2" fill="#fff"/>
<rect x="20" y="16" width="2" height="2" fill="#fff"/>
<rect x="22" y="16" width="2" height="2" fill="#fff"/>
<rect x="30" y="16" width="2" height="2" fill="#fff"/>
<rect x="32" y="16" width="2" height="2" fill="#fff"/>
<rect x="46" y="16" width="2" height="2" fill="#fff"/>
<rect x="48" y="16" width="2" height="2" fill="#fff"/>
<rect x="10" y="18" width="2" height="2" fill="#fff"/>
<rect x="12" y="18" width="2" height="2" fill="#fff"/>
<rect x="22" y="18" width="2" height="2" fill="#fff"/>
<rect x="24" y="18" width="2" height="2" fill="#fff"/>
<rect x="28" y="18" width="2" height="2" fill="#fff"/>
<rect x="30" y="18" width="2" height="2" fill="#fff"/>
<rect x="46" y="18" width="2" height="2" fill="#fff"/>
<rect x="48" y="18" width="2" height="2" fill="#fff"/>
<rect x="8" y="20" width="2" height="2" fill="#fff"/>
<rect x="10" y="20" width="2" height="2" fill="#fff"/>
<rect x="12" y="20" width="2" height="2" fill="#fff"/>
<rect x="14" y="20" width="2" height="2" fill="#fff"/>
<rect x="24" y="20" width="2" height="2" fill="#fff"/>
<rect x="26" y="20" width="2" height="2" fill="#fff"/>
<rect x="28" y="20" width="2" height="2" fill="#fff"/>
<rect x="44" y="20" width="2" height="2" fill="#fff"/>
<rect x="46" y="20" width="2" height="2" fill="#fff"/>
<rect x="48" y="20" width="2" height="2" fill="#fff"/>
<rect x="50" y="20" width="2" height="2" fill="#fff"/>
</svg>